<svg width="103" height="103" viewBox="0 0 103 103" fill="none" xmlns="http://www.w3.org/2000/svg">
<g clip-path="url(#clip0_9_127)">
<mask id="mask0_9_127" style="mask-type:alpha" maskUnits="userSpaceOnUse" x="0" y="0" width="103" height="103">
<path d="M52.3921 0.000169412C51.8926 -0.00222201 51.4028 0.020498 50.9311 0.0814833C48.2219 0.429458 45.4873 0.287159 42.7672 0.702097C38.7494 1.31554 34.5368 2.7457 30.8516 4.4198C11.1446 13.3703 -1.85837 34.2954 0.217064 55.8626C1.74704 71.7714 10.1262 86.4724 24.012 95.0271C26.9716 96.8519 30.0388 98.3322 33.2789 99.6046C34.3747 100.035 36.0341 100.971 37.2436 100.717C38.5111 100.449 38.3539 98.9672 38.3539 97.9879C38.3551 95.2567 38.8147 92.0615 37.7467 89.475C36.807 87.1983 34.3892 86.2452 32.396 85.0698C28.8898 83.001 25.5239 80.7876 22.4676 78.0911C20.9787 76.7782 17.2088 74.3507 20.0474 72.349C21.0561 71.6375 21.9838 72.325 22.7433 73.0509C24.6277 74.8529 26.5301 76.6454 28.6455 78.1868C30.8927 79.825 33.2862 81.1595 35.7063 82.5251C37.7975 83.7054 40.0326 85.0614 41.1114 87.2927C42.6462 90.4628 42.1044 94.3598 42.1044 97.7702C42.1044 98.9553 41.9169 100.336 42.2846 101.48C42.7696 102.991 44.9237 103.67 45.8562 102.122C46.6931 100.731 46.2976 98.4458 46.2976 96.8961C46.2976 92.2122 46.9604 86.8216 43.7662 82.9281C40.9506 79.495 36.449 78.0768 32.8375 75.6493C27.8219 72.2772 23.7568 67.3159 21.4601 61.7555C14.0896 43.9 25.0873 22.2275 44.0903 17.5496C48.5061 16.4626 53.0875 16.4614 57.5505 17.2697C75.5981 20.539 87.1109 39.2017 83.4281 56.5179C82.8258 59.3436 81.8945 62.3139 80.3936 64.8119C77.682 69.3236 74.3487 73.0318 69.9063 75.9435C66.5718 78.1282 62.4887 79.4663 59.7976 82.4904C55.9395 86.8276 57.571 92.3437 56.9506 97.5514C56.7425 99.2901 56.3845 102.757 58.8736 102.974C60.7434 103.137 61.0785 101.377 61.0809 99.9525C61.0845 97.6076 61.1909 95.3009 61.2937 92.9679C61.3554 91.5737 61.1825 90.1853 61.5562 88.8209C62.606 84.9825 66.0336 83.3658 69.2448 81.5565C71.8874 80.0666 74.4201 78.4104 76.7459 76.4685C77.9178 75.4903 78.9628 74.3842 80.0561 73.3235C80.6077 72.7878 81.2112 72.1122 82.0421 72.0751C83.4378 72.0153 84.3413 73.6416 83.9168 74.8517C83.5358 75.9411 82.4521 76.6705 81.6006 77.382C78.5613 79.9231 75.5316 82.3733 72.1124 84.4145C69.7261 85.8398 66.8512 86.7857 65.6103 89.475C64.523 91.8319 65.0516 95.0187 65.0516 97.5514C65.0516 98.3394 64.8133 99.6333 65.2801 100.321C65.7663 101.037 66.8004 100.707 67.4789 100.518C72.8707 99.0174 78.0158 96.1176 82.4823 92.8316C87.0214 89.4918 90.9582 85.3484 94.1706 80.7446C108.625 60.0264 104.883 30.4103 86.2341 13.5054C82.0687 9.7291 77.3046 6.59136 72.1124 4.38513C67.2225 2.30804 62.1815 0.94843 56.8877 0.388801C55.469 0.238131 53.8894 0.00495287 52.3921 0.000169412ZM51.1718 4.2213C54.5728 4.18065 58.1213 4.66016 61.301 5.35371C79.241 9.26753 93.7654 23.4687 97.7832 41.2381C99.3314 48.0828 99.1572 55.3401 97.7494 62.1919C95.4841 73.2159 88.5466 83.6767 79.1732 90.055C77.1135 91.4577 75.0212 92.7993 72.7752 93.8959C72.0326 94.257 70.9961 94.9111 70.1337 94.7963C68.1708 94.5332 69.0815 91.5832 70.147 90.8598C72.6313 89.1749 75.4142 88.0616 77.8501 86.256C84.0111 81.6881 88.8175 75.513 91.8399 68.5224C98.7629 52.5072 94.7475 33.3316 82.4763 20.9468C77.5417 15.9663 71.2851 12.1255 64.6113 9.92402C59.3514 8.19012 53.5943 7.48939 48.0622 7.86367C43.9851 8.1399 39.9225 9.31656 36.1478 10.8101C20.0208 17.192 8.67363 32.7492 7.91167 49.9698C7.70606 54.6094 8.35554 59.2503 9.61459 63.7201C12.1581 72.7484 17.9139 80.3607 25.3352 86.0587C27.6924 87.8679 30.3436 89.1235 32.8375 90.7031C33.9175 91.3871 35.554 94.4376 33.2717 94.7963C32.2678 94.9529 31.0245 94.1147 30.19 93.6567C27.8037 92.3485 25.5626 90.9973 23.3505 89.4141C13.4933 82.3613 5.87493 70.6079 4.62919 58.4814C3.03874 42.9971 7.92618 27.2414 19.82 16.6157C23.8476 13.0163 28.5584 10.1141 33.4991 7.91151C37.9995 5.90617 42.9934 5.07868 47.8421 4.44731C48.9246 4.3062 50.0385 4.23565 51.1718 4.2213ZM51.8684 21.8054C51.6434 21.8233 51.4064 21.8771 51.1584 21.9764C49.8172 22.5133 49.8849 24.124 49.6962 25.3054C49.2838 27.8967 48.5823 30.2668 47.166 32.5077C44.7253 36.3713 40.7317 38.6158 37.4709 41.6961C33.4011 45.5394 30.7862 51.553 31.3281 57.172C31.8711 62.8197 34.2332 67.9795 38.7953 71.5777C40.2527 72.728 42.4987 74.8003 44.5318 73.9788C45.6457 73.528 46.1888 72.5212 46.0001 71.36C45.7703 69.9382 44.9527 68.593 44.5391 67.2119C44.0093 65.4457 43.8956 63.365 44.1593 61.5378C45.0168 55.6031 50.0832 52.2621 53.7032 48.0051C56.6397 44.5493 58.0729 40.2624 58.1842 35.7817C58.281 31.9409 57.0219 27.9685 55.1509 24.6502C54.4518 23.4125 53.4407 21.6858 51.8684 21.8054ZM52.917 31.4159C53.5508 32.5938 53.5774 34.0359 53.5786 35.3453C53.5798 39.0008 52.5481 42.0118 50.2888 44.9487C48.3537 47.4658 45.7824 49.4795 43.7529 51.9333C40.5684 55.7825 38.7445 60.9304 39.6782 65.9025C38.684 65.3249 38.1434 64.2846 37.6366 63.2837C36.5566 61.148 35.9277 58.9071 35.9265 56.5179C35.9253 53.4543 36.3425 50.6418 38.0648 48.0051C40.0919 44.8984 43.0829 43.0916 45.8562 40.7407C48.7153 38.3156 51.6821 34.9961 52.917 31.4159ZM63.3559 41.4976C62.0339 41.5574 61.1607 42.8022 60.9285 44.0757C60.2814 47.6236 60.2657 50.7674 58.1286 53.8979C55.9721 57.0584 52.3969 59.0064 50.3239 62.1919C49.3745 63.6508 48.1687 67.0074 50.4957 67.9281C52.9206 68.8872 53.9584 65.2759 55.1642 63.9378C58.8301 59.8697 64.0828 56.3876 64.6113 50.4062C67.9434 55.7155 65.9248 63.6891 61.5006 67.7105C60.5028 68.6181 59.4106 69.393 58.212 70.022C57.3207 70.4907 56.1934 70.7705 55.4605 71.482C54.6369 72.282 54.3248 73.8879 55.192 74.7692C56.2176 75.8132 57.6762 75.4532 58.8736 74.9749C61.4461 73.9477 63.5651 72.4434 65.493 70.4859C71.1799 64.7127 72.0023 54.9789 68.865 47.7863C67.9579 45.7068 66.4594 42.074 63.9485 41.5454C63.7417 41.5024 63.5446 41.4892 63.3559 41.4976Z" fill="black"/>
</mask>
<g mask="url(#mask0_9_127)">
<rect x="-5.09901" y="-5.09903" width="113.198" height="113.198" fill="url(#paint0_linear_9_127)"/>
</g>
</g>
<defs>
<linearGradient id="paint0_linear_9_127" x1="51.5" y1="-5.09903" x2="51.5" y2="108.099" gradientUnits="userSpaceOnUse">
<stop stop-color="white"/>
<stop offset="1" stop-color="#AAAAAA"/>
</linearGradient>
<clipPath id="clip0_9_127">
<rect width="103" height="103" fill="white"/>
</clipPath>
</defs>
</svg>
